<?xml version="1.0" encoding="UTF-8"?>
<svg width="64px" height="64px" viewBox="0 0 64 64" version="1.1" xmlns="http://www.w3.org/2000/svg" xmlns:xlink="http://www.w3.org/1999/xlink">
    <!-- Generator: Sketch 56.2 (81672) - https://sketch.com -->
    <title>Brand/Logotype/Symbol/On Light</title>
    <desc>Created with Sketch.</desc>
    <g id="Brand/Logotype/Symbol/On-Light" stroke="none" stroke-width="1" fill="none" fill-rule="evenodd">
        <path d="M13.4732228,16.7684 L28.8560228,43.4129 C29.4074228,44.3675 30.3287228,44.9735 31.3340228,45.1586 L25.5695228,55.1429 C19.7264228,53.5169 14.4905228,49.6931 11.2181228,44.0255 C6.07222275,35.1125 7.29622275,24.2726 13.4732228,16.7684 Z M28.0510628,55.6754 L43.4341628,29.0309 C43.9852628,28.0763 44.0494628,26.9756 43.7074628,26.0123 L55.2358628,26.0123 C56.7496628,31.8857 56.0560628,38.3318 52.7836628,43.9997 C47.6377628,52.9127 37.6381628,57.2726 28.0510628,55.6754 Z M54.4455128,23.58125 L23.6793128,23.58125 C22.5768128,23.58125 21.5916128,24.07625 20.9286128,24.85415 L15.1644128,14.87015 C19.4937128,10.62245 25.4235128,7.99985 31.9677128,7.99985 C42.2598128,7.99985 51.0354128,14.48015 54.4455128,23.58125 Z" id="VD-Symbol" fill="#F46036"></path>
    </g>
</svg>