<svg xmlns="http://www.w3.org/2000/svg" width="16" height="16" viewBox="0 0 16 16">
    <path fill="#FFF" fill-rule="evenodd" d="M6.174 4.727c-.798 0-1.447.65-1.447 1.447v3.652c0 .798.65 1.447 1.447 1.447h3.652c.798 0 1.447-.65 1.447-1.447V6.174c0-.798-.65-1.447-1.447-1.447H6.174zM9.826 12H6.174A2.176 2.176 0 0 1 4 9.826V6.174C4 4.975 4.975 4 6.174 4h3.652C11.025 4 12 4.975 12 6.174v3.652A2.176 2.176 0 0 1 9.826 12zM8 6.545a1.456 1.456 0 0 0 0 2.91 1.456 1.456 0 0 0 0-2.91zm0 3.637A2.184 2.184 0 0 1 5.818 8c0-1.203.979-2.182 2.182-2.182 1.203 0 2.182.979 2.182 2.182A2.184 2.184 0 0 1 8 10.182zm2.182-4.364a.364.364 0 1 1 .001-.728.364.364 0 0 1-.001.728zM8 0a8 8 0 1 0 0 16A8 8 0 0 0 8 0"/>
</svg>
