<svg xmlns="http://www.w3.org/2000/svg" width="16" height="16" viewBox="0 0 16 16">
    <path fill="#FFF" fill-rule="evenodd" d="M11.181 6.368c.003.071.005.142.005.213 0 2.168-1.651 4.67-4.67 4.67-.927 0-1.79-.272-2.516-.738a3.292 3.292 0 0 0 2.43-.68 1.643 1.643 0 0 1-1.534-1.139 1.656 1.656 0 0 0 .742-.029 1.642 1.642 0 0 1-1.316-1.608v-.022c.22.124.474.198.743.206a1.641 1.641 0 0 1-.508-2.192A4.66 4.66 0 0 0 7.94 6.764 1.646 1.646 0 0 1 9.539 4.75c.472 0 .899.2 1.197.518.374-.073.726-.21 1.043-.397a1.65 1.65 0 0 1-.722.908c.332-.04.649-.128.943-.259-.22.329-.498.618-.819.85M8 0a8 8 0 1 0 0 16A8 8 0 0 0 8 0"/>
</svg>
