<svg xmlns="http://www.w3.org/2000/svg" width="16" height="16" viewBox="0 0 16 16">
    <path fill="#FFF" fill-rule="evenodd" d="M12 8.302v-.607c0-.647-.08-1.295-.08-1.295s-.078-.551-.318-.794c-.304-.319-.645-.32-.802-.338-1.119-.082-2.799-.082-2.799-.082H8s-1.68 0-2.8.082c-.156.018-.497.02-.801.338-.24.243-.318.794-.318.794S4 7.048 4 7.695v.607c0 .648.08 1.295.08 1.295s.078.551.318.794c.304.318.704.309.882.342.64.061 2.72.08 2.72.08s1.681-.003 2.8-.083c.157-.019.498-.02.802-.339.24-.243.318-.794.318-.794S12 8.95 12 8.302zM8 0a8 8 0 1 1 0 16A8 8 0 0 1 8 0zm-.826 9.037V6.79l2.162 1.127-2.162 1.12z"/>
</svg>
